# xmcd
#
# Track frame offsets:
#	150
#	16830
#	35436
#	52267
#	67791
#	83270
#	98102
#	114373
#	131214
#
# Disc length: 2080 seconds
#
# Revision: 0
# Processed by: cddbd v1.5.1PL2 Copyright (c) Steve Scherf et al.
# Submitted via: EasyCDDAExtractor 9.0.0.1
#
DISCID=68081e09
DTITLE=Burak Uckun - Sonsuza Kadar
DYEAR=1900
DGENRE=Pop
TTITLE0=Denedim
TTITLE1=Azad Et
TTITLE2=Hadi Bye Bye
TTITLE3=Tesekkür
TTITLE4=Sonsuza Kadar
TTITLE5=Ask Ask
TTITLE6=Yatagim Bos
TTITLE7=Cikolata
TTITLE8=Ismimi Söyle
EXTD=
EXTT0=
EXTT1=
EXTT2=
EXTT3=
EXTT4=
EXTT5=
EXTT6=
EXTT7=
EXTT8=
PLAYORDER=
